<?xml version="1.0" standalone="no"?>
<!DOCTYPE svg PUBLIC "-//W3C//DTD SVG 20010904//EN"
 "http://www.w3.org/TR/2001/REC-SVG-20010904/DTD/svg10.dtd">
<svg version="1.0" xmlns="http://www.w3.org/2000/svg"
 width="300.000000pt" height="300.000000pt" viewBox="0 0 300.000000 300.000000"
 preserveAspectRatio="xMidYMid meet">
<metadata>
Created by potrace 1.10, written by Peter Selinger 2001-2011
</metadata>
<g transform="translate(0.000000,300.000000) scale(0.100000,-0.100000)"
fill="#000000" stroke="none">
<path d="M787 2382 c-34 -38 -8 -92 44 -92 53 0 67 55 23 89 -33 26 -46 26
-67 3z m61 -36 c2 -10 0 -22 -5 -27 -20 -20 -62 18 -47 42 10 16 49 5 52 -15z"/>
<path d="M1241 2318 c-5 -15 -19 -32 -30 -38 -20 -10 -20 -11 5 -47 34 -50 32
-49 43 -20 6 15 21 29 36 33 14 3 25 9 25 13 -1 3 -16 24 -35 46 l-34 40 -10
-27z m32 -41 c6 -16 -29 -41 -38 -27 -6 10 14 39 26 40 4 0 9 -6 12 -13z"/>
<path d="M1691 2229 c-208 -41 -379 -247 -426 -514 -19 -110 -19 -179 0 -288
69 -399 386 -623 682 -483 134 64 232 186 295 367 31 90 32 100 33 249 0 179
-12 236 -77 367 -77 159 -218 276 -362 302 -67 12 -83 12 -145 0z m192 -40
c162 -53 291 -210 348 -424 29 -111 29 -288 0 -399 -48 -181 -162 -335 -296
-401 -55 -28 -69 -30 -165 -30 -98 0 -110 2 -170 32 -151 74 -264 238 -306
443 -20 100 -15 281 11 375 28 100 85 204 149 273 128 136 276 181 429 131z"/>
<path d="M1732 1395 c-12 -14 -29 -25 -37 -25 -8 0 -15 -2 -15 -4 0 -4 39 -75
47 -85 1 -2 12 8 24 22 11 15 29 27 40 27 25 0 24 16 -1 30 -11 6 -20 19 -20
30 0 30 -15 32 -38 5z m18 -55 c-9 -6 -19 -5 -25 1 -6 6 -5 13 5 19 9 6 19 5
25 -1 6 -6 5 -13 -5 -19z"/>
<path d="M762 2143 c-49 -182 -57 -249 -57 -478 0 -176 4 -237 18 -305 52
-240 146 -390 263 -419 56 -14 102 -3 166 39 42 28 118 113 118 132 0 21 -28
3 -58 -38 -159 -215 -361 -112 -447 228 -61 242 -52 572 21 826 28 97 28 92
10 92 -9 0 -21 -28 -34 -77z"/>
<path d="M2349 1860 l-25 -27 29 -33 28 -32 24 26 c13 14 29 26 35 26 5 0 10
7 10 15 0 8 -9 15 -20 15 -10 0 -24 9 -30 20 -13 25 -19 24 -51 -10z m45 -19
c3 -5 -1 -14 -9 -21 -13 -10 -15 -9 -15 9 0 21 14 28 24 12z"/>
<path d="M470 1409 c0 -6 -14 -24 -32 -41 l-31 -29 26 -25 c15 -14 27 -34 27
-45 0 -26 24 -20 28 7 2 10 13 29 24 41 20 21 20 21 0 41 -13 13 -19 28 -15
41 4 15 1 21 -11 21 -9 0 -16 -5 -16 -11z m12 -61 c9 -23 -2 -40 -17 -28 -8 6
-11 18 -8 26 6 17 19 18 25 2z"/>
</g>
</svg>
